<svg width="111" height="84" viewBox="0 0 111 84" fill="none" xmlns="http://www.w3.org/2000/svg">
<path d="M35.0148 68.1903L32.0286 71.1733C31.6304 71.571 31.1726 71.7699 30.6549 71.7699C30.1373 71.7699 29.6795 71.571 29.2813 71.1733L1.45008 43.3721C1.05192 42.9744 0.852844 42.517 0.852844 42C0.852844 41.4829 1.05192 41.0256 1.45008 40.6278L29.2813 12.8267C29.6795 12.429 30.1373 12.2301 30.6549 12.2301C31.1726 12.2301 31.6304 12.429 32.0286 12.8267L35.0148 15.8096C35.4129 16.2074 35.612 16.6648 35.612 17.1818C35.612 17.6989 35.4129 18.1562 35.0148 18.554L11.5434 42L35.0148 65.446C35.4129 65.8437 35.612 66.3011 35.612 66.8182C35.612 67.3352 35.4129 67.7926 35.0148 68.1903ZM70.3115 4.53408L48.0345 81.554C47.8753 82.071 47.5667 82.4588 47.1088 82.7173C46.6509 82.9758 46.1831 83.0256 45.7053 82.8665L42.0024 81.8523C41.4848 81.6932 41.0966 81.3849 40.8378 80.9275C40.579 80.4702 40.5293 79.9829 40.6885 79.4659L62.9654 2.44601C63.1247 1.92897 63.4333 1.54118 63.8912 1.28266C64.349 1.02414 64.8169 0.974421 65.2947 1.13351L68.9975 2.14772C69.5151 2.30681 69.9033 2.61505 70.1621 3.07243C70.421 3.52982 70.4707 4.01703 70.3115 4.53408ZM109.55 43.3721L81.7187 71.1733C81.3205 71.571 80.8626 71.7699 80.345 71.7699C79.8274 71.7699 79.3695 71.571 78.9714 71.1733L75.9852 68.1903C75.587 67.7926 75.388 67.3352 75.388 66.8182C75.388 66.3011 75.587 65.8437 75.9852 65.446L99.4566 42L75.9852 18.554C75.587 18.1562 75.388 17.6989 75.388 17.1818C75.388 16.6648 75.587 16.2074 75.9852 15.8096L78.9714 12.8267C79.3695 12.429 79.8274 12.2301 80.345 12.2301C80.8626 12.2301 81.3205 12.429 81.7187 12.8267L109.55 40.6278C109.948 41.0256 110.147 41.4829 110.147 42C110.147 42.517 109.948 42.9744 109.55 43.3721Z" fill="url(#paint0_linear_103_2)"/>
<defs>
<linearGradient id="paint0_linear_103_2" x1="1" y1="0.999999" x2="110" y2="83" gradientUnits="userSpaceOnUse">
<stop stop-color="#D53369"/>
<stop offset="1" stop-color="#DAAE51"/>
</linearGradient>
</defs>
</svg>
