<svg width="103" height="79" viewBox="0 0 103 79" fill="none" xmlns="http://www.w3.org/2000/svg">
<path d="M36.2109 44.8695L7.36599 73.6305C6.95333 74.0419 6.47877 74.2477 5.94231 74.2477C5.40585 74.2477 4.93129 74.0419 4.51863 73.6305L1.42368 70.5445C1.01102 70.1331 0.804688 69.6599 0.804688 69.125C0.804688 68.5901 1.01102 68.1169 1.42368 67.7055L25.75 43.45L1.42368 19.1945C1.01102 18.7831 0.804688 18.3099 0.804688 17.775C0.804688 17.2401 1.01102 16.7669 1.42368 16.3555L4.51863 13.2695C4.93129 12.8581 5.40585 12.6523 5.94231 12.6523C6.47877 12.6523 6.95333 12.8581 7.36599 13.2695L36.2109 42.0305C36.6236 42.4419 36.8299 42.9151 36.8299 43.45C36.8299 43.9849 36.6236 44.4581 36.2109 44.8695ZM103 73.075V77.025C103 77.601 102.814 78.0742 102.443 78.4445C102.072 78.8148 101.597 79 101.019 79H41.5962C41.0184 79 40.5439 78.8148 40.1725 78.4445C39.8011 78.0742 39.6154 77.601 39.6154 77.025V73.075C39.6154 72.499 39.8011 72.0258 40.1725 71.6555C40.5439 71.2852 41.0184 71.1 41.5962 71.1H101.019C101.597 71.1 102.072 71.2852 102.443 71.6555C102.814 72.0258 103 72.499 103 73.075Z" fill="url(#paint0_linear_103_4)"/>
<defs>
<linearGradient id="paint0_linear_103_4" x1="0.999999" y1="13" x2="103" y2="79" gradientUnits="userSpaceOnUse">
<stop stop-color="#D53369"/>
<stop offset="1" stop-color="#DAAE51"/>
</linearGradient>
</defs>
</svg>
