<svg width="97" height="87" viewBox="0 0 97 87" fill="none" xmlns="http://www.w3.org/2000/svg">
<path d="M95.3228 19.8242C96.84 21.9766 97.1813 24.4121 96.3469 27.1309L80.7014 78.4473C79.9807 80.8639 78.5299 82.8936 76.349 84.5361C74.1682 86.1787 71.845 87 69.3797 87H16.8676C13.9471 87 11.1309 85.9899 8.41901 83.9697C5.70712 81.9495 3.82017 79.4668 2.75817 76.5215C1.84789 73.9915 1.80996 71.5938 2.64439 69.3281C2.64439 69.1771 2.70128 68.6673 2.81507 67.7988C2.92885 66.9303 3.00471 66.2318 3.04264 65.7031C3.08057 65.401 3.02367 64.9951 2.87196 64.4854C2.72024 63.9756 2.66335 63.6074 2.70128 63.3809C2.77714 62.9655 2.92885 62.569 3.15642 62.1914C3.38399 61.8138 3.69691 61.3701 4.09516 60.8604C4.4934 60.3506 4.80632 59.9069 5.03389 59.5293C5.90624 58.0944 6.75964 56.3669 7.59406 54.3467C8.42849 52.3265 8.99742 50.599 9.30085 49.1641C9.41463 48.7865 9.42412 48.2201 9.3293 47.4648C9.23447 46.7096 9.22499 46.181 9.30085 45.8789C9.41463 45.4635 9.73703 44.9349 10.268 44.293C10.799 43.651 11.1214 43.2168 11.2352 42.9902C12.0317 41.6309 12.8282 39.8939 13.6247 37.7793C14.4212 35.6647 14.8953 33.9655 15.047 32.6816C15.085 32.3418 15.0375 31.7376 14.9048 30.8691C14.772 30.0007 14.7815 29.472 14.9332 29.2832C15.085 28.7923 15.5022 28.2165 16.1849 27.5557C16.8676 26.8949 17.2848 26.4701 17.4365 26.2812C18.1572 25.2995 18.9631 23.7041 19.8545 21.4951C20.7458 19.2861 21.2673 17.4642 21.419 16.0293C21.457 15.7272 21.4001 15.2458 21.2483 14.585C21.0966 13.9242 21.0587 13.4238 21.1346 13.084C21.2104 12.7819 21.3811 12.4421 21.6466 12.0645C21.9121 11.6868 22.2534 11.2526 22.6707 10.7617C23.0879 10.2708 23.4103 9.87435 23.6378 9.57227C23.9413 9.11914 24.2542 8.54329 24.5766 7.84473C24.899 7.14616 25.1834 6.48535 25.43 5.8623C25.6765 5.23926 25.9799 4.55957 26.3403 3.82324C26.7006 3.08691 27.0704 2.48275 27.4497 2.01074C27.8289 1.53874 28.3315 1.09505 28.9573 0.679688C29.5831 0.264323 30.2659 0.0472005 31.0055 0.0283203C31.7451 0.0094401 32.6459 0.113281 33.7079 0.339844L33.651 0.509766C35.0923 0.169922 36.0594 0 36.5525 0H79.848C82.6547 0 84.8166 1.05729 86.3337 3.17188C87.8509 5.28646 88.1922 7.74089 87.3578 10.5352L71.7692 61.8516C70.4037 66.3451 69.0478 69.2432 67.7013 70.5459C66.3549 71.8486 63.918 72.5 60.3906 72.5H10.9507C9.92667 72.5 9.20603 72.7832 8.78881 73.3496C8.3716 73.9538 8.35264 74.7656 8.73192 75.7852C9.64221 78.4284 12.3731 79.75 16.9245 79.75H69.4366C70.5365 79.75 71.5985 79.4574 72.6226 78.8721C73.6466 78.2868 74.3104 77.5033 74.6138 76.5215L91.6817 20.6172C91.9472 19.7865 92.042 18.7103 91.9661 17.3887C93.4074 17.9551 94.5263 18.7669 95.3228 19.8242ZM34.7888 19.9375C34.6371 20.4284 34.6751 20.8532 34.9026 21.2119C35.1302 21.5706 35.5095 21.75 36.0405 21.75H70.6313C71.1244 21.75 71.608 21.5706 72.0821 21.2119C72.5562 20.8532 72.8691 20.4284 73.0208 19.9375L74.2156 16.3125C74.3673 15.8216 74.3294 15.3968 74.1018 15.0381C73.8742 14.6794 73.4949 14.5 72.9639 14.5H38.3731C37.88 14.5 37.3964 14.6794 36.9223 15.0381C36.4482 15.3968 36.1353 15.8216 35.9836 16.3125L34.7888 19.9375ZM30.0667 34.4375C29.915 34.9284 29.9529 35.3532 30.1805 35.7119C30.4081 36.0706 30.7874 36.25 31.3184 36.25H65.9092C66.4023 36.25 66.8859 36.0706 67.36 35.7119C67.8341 35.3532 68.147 34.9284 68.2987 34.4375L69.4935 30.8125C69.6452 30.3216 69.6072 29.8968 69.3797 29.5381C69.1521 29.1794 68.7728 29 68.2418 29H33.651C33.1579 29 32.6743 29.1794 32.2002 29.5381C31.7261 29.8968 31.4132 30.3216 31.2615 30.8125L30.0667 34.4375Z" fill="url(#paint0_linear_103_6)"/>
<defs>
<linearGradient id="paint0_linear_103_6" x1="2" y1="8.06948e-07" x2="97" y2="87" gradientUnits="userSpaceOnUse">
<stop stop-color="#D53369"/>
<stop offset="1" stop-color="#DAAE51"/>
</linearGradient>
</defs>
</svg>
