<svg width="219" height="172" viewBox="0 0 219 172" fill="none" xmlns="http://www.w3.org/2000/svg">
<path d="M99.5 4.33013C104.141 1.65064 109.859 1.65064 114.5 4.33013L154.926 27.6699C159.567 30.3494 162.426 35.3013 162.426 40.6603V87.3397C162.426 92.6987 159.567 97.6506 154.926 100.33L114.5 123.67C109.859 126.349 104.141 126.349 99.5 123.67L59.0744 100.33C54.4334 97.6506 51.5744 92.6987 51.5744 87.3397V40.6603C51.5744 35.3013 54.4334 30.3494 59.0744 27.6699L99.5 4.33013Z" fill="url(#paint0_linear_102_19)"/>
<rect x="63.5" y="69.5" width="87" height="20" rx="10" stroke="white" stroke-width="3"/>
<circle cx="107" cy="79.5" r="7" fill="white"/>
<circle cx="140" cy="79.5" r="7" fill="white"/>
<circle cx="124" cy="79.5" r="7" fill="white"/>
<circle cx="90" cy="79.5" r="7" fill="white"/>
<circle cx="74" cy="79.5" r="7" fill="white"/>
<path d="M106.899 49.1262C106.973 47.7245 107.664 46.4868 108.695 45.6127C109.782 44.7097 111.156 44.2254 112.571 44.2319C114.056 44.2319 115.422 44.7582 116.441 45.6127C117.473 46.4881 118.156 47.7245 118.237 49.1262C118.312 50.5608 117.739 51.9022 116.72 52.8918C115.606 53.9589 114.116 54.5456 112.571 54.5337C111.019 54.5456 109.53 53.9602 108.408 52.8918C107.396 51.9009 106.816 50.5608 106.897 49.1262H106.899ZM97.8686 51.956C97.8739 52.5033 98.0524 53.5691 98.3109 54.4025C98.8793 56.1941 99.8295 57.8412 101.1 59.222C102.461 60.7196 104.123 61.9152 105.973 62.729C107.999 63.6176 110.179 64.0691 112.38 64.0559C114.586 64.0625 116.767 63.6044 118.785 62.7106C120.637 61.8903 122.292 60.6854 123.658 59.1892C124.922 57.8019 125.872 56.1481 126.44 54.3552C126.986 52.6188 127.137 50.78 126.878 48.9753C126.631 47.2467 126.028 45.5904 125.099 44.1151C124.238 42.7331 123.145 41.5229 121.859 40.5399L108.707 30.4349C107.846 29.7721 106.397 29.7787 105.454 30.4349C104.497 31.1056 104.387 32.2134 105.233 32.9169L110.704 37.3676L94.0033 37.3886C92.6213 37.3886 91.3035 38.2902 91.0358 39.44C90.7693 40.6016 91.6986 41.5662 93.1344 41.5715L101.591 41.5597L86.4433 53.1792C85.0219 54.266 84.5638 56.0838 85.4603 57.227C86.3685 58.3964 88.3044 58.3964 89.7456 57.2336L97.9763 50.4991C97.9763 50.4991 97.8542 51.4087 97.8673 51.9547L97.8686 51.956ZM119.024 54.9971C117.323 56.7282 114.95 57.7113 112.381 57.7113C109.81 57.7179 107.43 56.7466 105.736 55.0246C104.936 54.2174 104.313 53.2462 103.923 52.1804C103.193 50.1579 103.377 47.9082 104.417 46.0209C104.93 45.1061 105.612 44.2844 106.433 43.6216C108.081 42.2829 110.18 41.5584 112.381 41.5518C114.574 41.5518 116.674 42.2697 118.32 43.6085C119.161 44.2923 119.844 45.0995 120.336 46.0025C120.849 46.9173 121.164 47.9358 121.253 48.9897C121.349 50.0621 121.206 51.1422 120.837 52.1542C120.44 53.2212 119.824 54.1912 119.025 54.9984L119.024 54.9971Z" fill="white"/>
<path d="M2.30469 165V136.562H13.418C16.3867 136.562 18.6393 137.188 20.1758 138.438C21.7122 139.674 22.4805 141.497 22.4805 143.906C22.4805 145.508 22.1289 146.829 21.4258 147.871C20.7357 148.913 19.8438 149.629 18.75 150.02V150.098C20.0911 150.449 21.2044 151.198 22.0898 152.344C22.9753 153.477 23.418 155.013 23.418 156.953C23.418 159.492 22.5586 161.471 20.8398 162.891C19.1341 164.297 16.8294 165 13.9258 165H2.30469ZM8.65234 160.586H12.8906C14.2578 160.586 15.2669 160.215 15.918 159.473C16.569 158.73 16.8945 157.728 16.8945 156.465C16.8945 155.202 16.569 154.193 15.918 153.438C15.2669 152.682 14.2578 152.305 12.8906 152.305H8.65234V160.586ZM8.65234 148.535H12.4414C13.7826 148.535 14.7461 148.21 15.332 147.559C15.931 146.895 16.2305 145.97 16.2305 144.785C16.2305 143.587 15.931 142.676 15.332 142.051C14.7461 141.426 13.7826 141.113 12.4414 141.113H8.65234V148.535ZM26.582 165V135.879H32.9102V165H26.582ZM36.0547 155.703V155.078C36.0547 152.109 36.9857 149.74 38.8477 147.969C40.7096 146.185 43.151 145.293 46.1719 145.293C49.1797 145.293 51.5104 146.139 53.1641 147.832C54.8177 149.512 55.6445 151.836 55.6445 154.805V156.719H39.7852V153.301H49.5312V153.027C49.5312 152.077 49.2448 151.283 48.6719 150.645C48.099 150.007 47.2526 149.688 46.1328 149.688C44.8828 149.688 43.9323 150.143 43.2812 151.055C42.6432 151.953 42.3242 153.112 42.3242 154.531V155.859C42.3242 157.487 42.6693 158.763 43.3594 159.688C44.0625 160.599 45.0911 161.055 46.4453 161.055C47.4089 161.055 48.2227 160.84 48.8867 160.41C49.5638 159.98 50.0977 159.44 50.4883 158.789L55.4297 160.781C54.8047 162.227 53.75 163.379 52.2656 164.238C50.7812 165.098 48.8607 165.527 46.5039 165.527C43.2227 165.527 40.6576 164.642 38.8086 162.871C36.9727 161.087 36.0547 158.698 36.0547 155.703ZM58.5938 165V145.859H64.707L64.7656 148.262H64.8438C65.3385 147.402 66.0938 146.712 67.1094 146.191C68.138 145.671 69.3424 145.41 70.7227 145.41C72.7018 145.41 74.3034 145.964 75.5273 147.07C76.7643 148.164 77.3828 150.033 77.3828 152.676V165H71.0938V153.262C71.0938 152.116 70.8529 151.309 70.3711 150.84C69.8893 150.358 69.2057 150.117 68.3203 150.117C67.5781 150.117 66.901 150.339 66.2891 150.781C65.6771 151.224 65.2083 151.816 64.8828 152.559V165H58.5938ZM80.3125 155.723V155.098C80.3125 152.272 81.0677 149.961 82.5781 148.164C84.1016 146.367 86.0938 145.469 88.5547 145.469C89.8958 145.469 91.0417 145.697 91.9922 146.152C92.9427 146.595 93.6849 147.181 94.2188 147.91V135.879H100.391V165H94.3945L94.3359 162.5H94.2773C93.7826 163.307 93.0404 163.991 92.0508 164.551C91.0612 165.111 89.8958 165.391 88.5547 165.391C86.0026 165.391 83.9909 164.486 82.5195 162.676C81.0482 160.866 80.3125 158.548 80.3125 155.723ZM86.6992 155.82C86.6992 157.331 87.0117 158.561 87.6367 159.512C88.2747 160.462 89.2383 160.938 90.5273 160.938C91.4128 160.938 92.1615 160.69 92.7734 160.195C93.3984 159.701 93.8477 159.121 94.1211 158.457V152.324C93.8607 151.66 93.4245 151.094 92.8125 150.625C92.2005 150.156 91.4453 149.922 90.5469 149.922C89.2578 149.922 88.2943 150.397 87.6562 151.348C87.0182 152.298 86.6992 153.529 86.6992 155.039V155.82ZM103.477 155.703V155.078C103.477 152.109 104.408 149.74 106.27 147.969C108.132 146.185 110.573 145.293 113.594 145.293C116.602 145.293 118.932 146.139 120.586 147.832C122.24 149.512 123.066 151.836 123.066 154.805V156.719H107.207V153.301H116.953V153.027C116.953 152.077 116.667 151.283 116.094 150.645C115.521 150.007 114.674 149.688 113.555 149.688C112.305 149.688 111.354 150.143 110.703 151.055C110.065 151.953 109.746 153.112 109.746 154.531V155.859C109.746 157.487 110.091 158.763 110.781 159.688C111.484 160.599 112.513 161.055 113.867 161.055C114.831 161.055 115.645 160.84 116.309 160.41C116.986 159.98 117.52 159.44 117.91 158.789L122.852 160.781C122.227 162.227 121.172 163.379 119.688 164.238C118.203 165.098 116.283 165.527 113.926 165.527C110.645 165.527 108.079 164.642 106.23 162.871C104.395 161.087 103.477 158.698 103.477 155.703ZM126.016 165V145.859H132.227L132.285 148.242H132.344C132.812 147.435 133.431 146.764 134.199 146.23C134.98 145.697 135.866 145.43 136.855 145.43C137.194 145.43 137.52 145.456 137.832 145.508C138.145 145.56 138.366 145.612 138.496 145.664V150.605C138.262 150.527 137.988 150.469 137.676 150.43C137.363 150.391 137.025 150.371 136.66 150.371C135.788 150.371 134.961 150.638 134.18 151.172C133.411 151.706 132.819 152.402 132.402 153.262V165H126.016ZM141.172 165V136.562H147.656V159.941H159.102V165H141.172ZM161.758 165V145.859H168.105V165H161.758ZM161.348 139.805C161.348 138.88 161.654 138.105 162.266 137.48C162.891 136.855 163.783 136.543 164.941 136.543C166.1 136.543 166.986 136.855 167.598 137.48C168.21 138.092 168.516 138.867 168.516 139.805C168.516 140.729 168.203 141.51 167.578 142.148C166.953 142.786 166.061 143.105 164.902 143.105C163.757 143.105 162.878 142.786 162.266 142.148C161.654 141.497 161.348 140.716 161.348 139.805ZM172.227 165V145.859H178.34L178.398 148.262H178.477C178.971 147.402 179.727 146.712 180.742 146.191C181.771 145.671 182.975 145.41 184.355 145.41C186.335 145.41 187.936 145.964 189.16 147.07C190.397 148.164 191.016 150.033 191.016 152.676V165H184.727V153.262C184.727 152.116 184.486 151.309 184.004 150.84C183.522 150.358 182.839 150.117 181.953 150.117C181.211 150.117 180.534 150.339 179.922 150.781C179.31 151.224 178.841 151.816 178.516 152.559V165H172.227ZM193.945 155.703V155.078C193.945 152.109 194.876 149.74 196.738 147.969C198.6 146.185 201.042 145.293 204.062 145.293C207.07 145.293 209.401 146.139 211.055 147.832C212.708 149.512 213.535 151.836 213.535 154.805V156.719H197.676V153.301H207.422V153.027C207.422 152.077 207.135 151.283 206.562 150.645C205.99 150.007 205.143 149.688 204.023 149.688C202.773 149.688 201.823 150.143 201.172 151.055C200.534 151.953 200.215 153.112 200.215 154.531V155.859C200.215 157.487 200.56 158.763 201.25 159.688C201.953 160.599 202.982 161.055 204.336 161.055C205.299 161.055 206.113 160.84 206.777 160.41C207.454 159.98 207.988 159.44 208.379 158.789L213.32 160.781C212.695 162.227 211.641 163.379 210.156 164.238C208.672 165.098 206.751 165.527 204.395 165.527C201.113 165.527 198.548 164.642 196.699 162.871C194.863 161.087 193.945 158.698 193.945 155.703Z" fill="white"/>
<defs>
<linearGradient id="paint0_linear_102_19" x1="43" y1="0" x2="171" y2="128" gradientUnits="userSpaceOnUse">
<stop stop-color="#D53369"/>
<stop offset="1" stop-color="#DAAE51"/>
</linearGradient>
</defs>
</svg>
