<svg width="219" height="44" viewBox="0 0 219 44" fill="none" xmlns="http://www.w3.org/2000/svg">
<path d="M2.30469 37V8.5625H13.418C16.3867 8.5625 18.6393 9.1875 20.1758 10.4375C21.7122 11.6745 22.4805 13.4974 22.4805 15.9062C22.4805 17.5078 22.1289 18.8294 21.4258 19.8711C20.7357 20.9128 19.8438 21.6289 18.75 22.0195V22.0977C20.0911 22.4492 21.2044 23.1979 22.0898 24.3438C22.9753 25.4766 23.418 27.013 23.418 28.9531C23.418 31.4922 22.5586 33.4714 20.8398 34.8906C19.1341 36.2969 16.8294 37 13.9258 37H2.30469ZM8.65234 32.5859H12.8906C14.2578 32.5859 15.2669 32.2148 15.918 31.4727C16.569 30.7305 16.8945 29.7279 16.8945 28.4648C16.8945 27.2018 16.569 26.1927 15.918 25.4375C15.2669 24.6823 14.2578 24.3047 12.8906 24.3047H8.65234V32.5859ZM8.65234 20.5352H12.4414C13.7826 20.5352 14.7461 20.2096 15.332 19.5586C15.931 18.8945 16.2305 17.9701 16.2305 16.7852C16.2305 15.5872 15.931 14.6758 15.332 14.0508C14.7461 13.4258 13.7826 13.1133 12.4414 13.1133H8.65234V20.5352ZM26.582 37V7.87891H32.9102V37H26.582ZM36.0547 27.7031V27.0781C36.0547 24.1094 36.9857 21.7396 38.8477 19.9688C40.7096 18.1849 43.151 17.293 46.1719 17.293C49.1797 17.293 51.5104 18.1393 53.1641 19.832C54.8177 21.5117 55.6445 23.8359 55.6445 26.8047V28.7188H39.7852V25.3008H49.5312V25.0273C49.5312 24.0768 49.2448 23.2826 48.6719 22.6445C48.099 22.0065 47.2526 21.6875 46.1328 21.6875C44.8828 21.6875 43.9323 22.1432 43.2812 23.0547C42.6432 23.9531 42.3242 25.112 42.3242 26.5312V27.8594C42.3242 29.487 42.6693 30.763 43.3594 31.6875C44.0625 32.599 45.0911 33.0547 46.4453 33.0547C47.4089 33.0547 48.2227 32.8398 48.8867 32.4102C49.5638 31.9805 50.0977 31.4401 50.4883 30.7891L55.4297 32.7812C54.8047 34.2266 53.75 35.3789 52.2656 36.2383C50.7812 37.0977 48.8607 37.5273 46.5039 37.5273C43.2227 37.5273 40.6576 36.6419 38.8086 34.8711C36.9727 33.0872 36.0547 30.6979 36.0547 27.7031ZM58.5938 37V17.8594H64.707L64.7656 20.2617H64.8438C65.3385 19.4023 66.0938 18.7122 67.1094 18.1914C68.138 17.6706 69.3424 17.4102 70.7227 17.4102C72.7018 17.4102 74.3034 17.9635 75.5273 19.0703C76.7643 20.1641 77.3828 22.0326 77.3828 24.6758V37H71.0938V25.2617C71.0938 24.1159 70.8529 23.3086 70.3711 22.8398C69.8893 22.3581 69.2057 22.1172 68.3203 22.1172C67.5781 22.1172 66.901 22.3385 66.2891 22.7812C65.6771 23.224 65.2083 23.8164 64.8828 24.5586V37H58.5938ZM80.3125 27.7227V27.0977C80.3125 24.2721 81.0677 21.9609 82.5781 20.1641C84.1016 18.3672 86.0938 17.4688 88.5547 17.4688C89.8958 17.4688 91.0417 17.6966 91.9922 18.1523C92.9427 18.5951 93.6849 19.181 94.2188 19.9102V7.87891H100.391V37H94.3945L94.3359 34.5H94.2773C93.7826 35.3073 93.0404 35.9909 92.0508 36.5508C91.0612 37.1107 89.8958 37.3906 88.5547 37.3906C86.0026 37.3906 83.9909 36.4857 82.5195 34.6758C81.0482 32.8659 80.3125 30.5482 80.3125 27.7227ZM86.6992 27.8203C86.6992 29.3307 87.0117 30.5612 87.6367 31.5117C88.2747 32.4622 89.2383 32.9375 90.5273 32.9375C91.4128 32.9375 92.1615 32.6901 92.7734 32.1953C93.3984 31.7005 93.8477 31.1211 94.1211 30.457V24.3242C93.8607 23.6602 93.4245 23.0938 92.8125 22.625C92.2005 22.1562 91.4453 21.9219 90.5469 21.9219C89.2578 21.9219 88.2943 22.3971 87.6562 23.3477C87.0182 24.2982 86.6992 25.5286 86.6992 27.0391V27.8203ZM103.477 27.7031V27.0781C103.477 24.1094 104.408 21.7396 106.27 19.9688C108.132 18.1849 110.573 17.293 113.594 17.293C116.602 17.293 118.932 18.1393 120.586 19.832C122.24 21.5117 123.066 23.8359 123.066 26.8047V28.7188H107.207V25.3008H116.953V25.0273C116.953 24.0768 116.667 23.2826 116.094 22.6445C115.521 22.0065 114.674 21.6875 113.555 21.6875C112.305 21.6875 111.354 22.1432 110.703 23.0547C110.065 23.9531 109.746 25.112 109.746 26.5312V27.8594C109.746 29.487 110.091 30.763 110.781 31.6875C111.484 32.599 112.513 33.0547 113.867 33.0547C114.831 33.0547 115.645 32.8398 116.309 32.4102C116.986 31.9805 117.52 31.4401 117.91 30.7891L122.852 32.7812C122.227 34.2266 121.172 35.3789 119.688 36.2383C118.203 37.0977 116.283 37.5273 113.926 37.5273C110.645 37.5273 108.079 36.6419 106.23 34.8711C104.395 33.0872 103.477 30.6979 103.477 27.7031ZM126.016 37V17.8594H132.227L132.285 20.2422H132.344C132.812 19.4349 133.431 18.7643 134.199 18.2305C134.98 17.6966 135.866 17.4297 136.855 17.4297C137.194 17.4297 137.52 17.4557 137.832 17.5078C138.145 17.5599 138.366 17.612 138.496 17.6641V22.6055C138.262 22.5273 137.988 22.4688 137.676 22.4297C137.363 22.3906 137.025 22.3711 136.66 22.3711C135.788 22.3711 134.961 22.638 134.18 23.1719C133.411 23.7057 132.819 24.4023 132.402 25.2617V37H126.016ZM141.172 37V8.5625H147.656V31.9414H159.102V37H141.172ZM161.758 37V17.8594H168.105V37H161.758ZM161.348 11.8047C161.348 10.8802 161.654 10.1055 162.266 9.48047C162.891 8.85547 163.783 8.54297 164.941 8.54297C166.1 8.54297 166.986 8.85547 167.598 9.48047C168.21 10.0924 168.516 10.8672 168.516 11.8047C168.516 12.7292 168.203 13.5104 167.578 14.1484C166.953 14.7865 166.061 15.1055 164.902 15.1055C163.757 15.1055 162.878 14.7865 162.266 14.1484C161.654 13.4974 161.348 12.7161 161.348 11.8047ZM172.227 37V17.8594H178.34L178.398 20.2617H178.477C178.971 19.4023 179.727 18.7122 180.742 18.1914C181.771 17.6706 182.975 17.4102 184.355 17.4102C186.335 17.4102 187.936 17.9635 189.16 19.0703C190.397 20.1641 191.016 22.0326 191.016 24.6758V37H184.727V25.2617C184.727 24.1159 184.486 23.3086 184.004 22.8398C183.522 22.3581 182.839 22.1172 181.953 22.1172C181.211 22.1172 180.534 22.3385 179.922 22.7812C179.31 23.224 178.841 23.8164 178.516 24.5586V37H172.227ZM193.945 27.7031V27.0781C193.945 24.1094 194.876 21.7396 196.738 19.9688C198.6 18.1849 201.042 17.293 204.062 17.293C207.07 17.293 209.401 18.1393 211.055 19.832C212.708 21.5117 213.535 23.8359 213.535 26.8047V28.7188H197.676V25.3008H207.422V25.0273C207.422 24.0768 207.135 23.2826 206.562 22.6445C205.99 22.0065 205.143 21.6875 204.023 21.6875C202.773 21.6875 201.823 22.1432 201.172 23.0547C200.534 23.9531 200.215 25.112 200.215 26.5312V27.8594C200.215 29.487 200.56 30.763 201.25 31.6875C201.953 32.599 202.982 33.0547 204.336 33.0547C205.299 33.0547 206.113 32.8398 206.777 32.4102C207.454 31.9805 207.988 31.4401 208.379 30.7891L213.32 32.7812C212.695 34.2266 211.641 35.3789 210.156 36.2383C208.672 37.0977 206.751 37.5273 204.395 37.5273C201.113 37.5273 198.548 36.6419 196.699 34.8711C194.863 33.0872 193.945 30.6979 193.945 27.7031Z" fill="#2C3E50"/>
</svg>
