<svg width="128" height="128" viewBox="0 0 128 128" fill="none" xmlns="http://www.w3.org/2000/svg">
<path d="M56.5 4.33013C61.141 1.65064 66.859 1.65064 71.5 4.33013L111.926 27.6699C116.567 30.3494 119.426 35.3013 119.426 40.6603V87.3397C119.426 92.6987 116.567 97.6506 111.926 100.33L71.5 123.67C66.859 126.349 61.141 126.349 56.5 123.67L16.0744 100.33C11.4334 97.6506 8.57438 92.6987 8.57438 87.3397V40.6603C8.57438 35.3013 11.4334 30.3494 16.0744 27.6699L56.5 4.33013Z" fill="url(#paint0_linear_102_41)"/>
<rect x="20.5" y="69.5" width="87" height="20" rx="10" stroke="white" stroke-width="3"/>
<circle cx="64" cy="79.5" r="7" fill="white"/>
<circle cx="97" cy="79.5" r="7" fill="white"/>
<circle cx="81" cy="79.5" r="7" fill="white"/>
<circle cx="47" cy="79.5" r="7" fill="white"/>
<circle cx="31" cy="79.5" r="7" fill="white"/>
<path d="M63.8986 49.1262C63.9734 47.7245 64.6638 46.4868 65.6954 45.6127C66.7822 44.7097 68.1564 44.2254 69.5713 44.2319C71.0557 44.2319 72.422 44.7582 73.4405 45.6127C74.4734 46.4881 75.1559 47.7245 75.2373 49.1262C75.3121 50.5608 74.7386 51.9022 73.7201 52.8918C72.6058 53.9589 71.1161 54.5456 69.5713 54.5337C68.0186 54.5456 66.5302 53.9602 65.408 52.8918C64.3961 51.9009 63.8159 50.5608 63.8973 49.1262H63.8986ZM54.8686 51.956C54.8739 52.5033 55.0524 53.5691 55.3109 54.4025C55.8793 56.1941 56.8295 57.8412 58.1 59.222C59.4611 60.7196 61.1227 61.9152 62.9733 62.729C64.9985 63.6175 67.1786 64.0691 69.3796 64.0559C71.5859 64.0625 73.7673 63.6044 75.7846 62.7106C77.6366 61.8903 79.2916 60.6854 80.6579 59.1892C81.9219 57.8019 82.8721 56.1481 83.4404 54.3552C83.9864 52.6188 84.1374 50.78 83.8775 48.9753C83.6308 47.2467 83.0283 45.5904 82.0991 44.1151C81.2381 42.7331 80.1448 41.5229 78.8585 40.5399L65.7073 30.4349C64.8463 29.7721 63.3973 29.7787 62.4536 30.4349C61.4968 31.1056 61.3865 32.2134 62.2331 32.9169L67.7036 37.3676L51.0033 37.3886C49.6213 37.3886 48.3035 38.2902 48.0358 39.44C47.7693 40.6016 48.6986 41.5662 50.1344 41.5715L58.5909 41.5597L43.4433 53.1792C42.0219 54.266 41.5638 56.0838 42.4603 57.227C43.3685 58.3964 45.3044 58.3964 46.7456 57.2336L54.9763 50.4991C54.9763 50.4991 54.8542 51.4087 54.8673 51.9547L54.8686 51.956ZM76.0235 54.9971C74.3225 56.7282 71.9495 57.7113 69.3809 57.7113C66.8098 57.7179 64.4302 56.7466 62.7358 55.0246C61.9364 54.2174 61.313 53.2462 60.9232 52.1804C60.1934 50.1579 60.3772 47.9082 61.4167 46.0209C61.9299 45.1061 62.6124 44.2844 63.4327 43.6216C65.0812 42.2829 67.1799 41.5584 69.3809 41.5518C71.5741 41.5518 73.6741 42.2697 75.32 43.6085C76.1613 44.2923 76.8438 45.0995 77.336 46.0025C77.8492 46.9173 78.1642 47.9358 78.2534 48.9897C78.3493 50.0621 78.2062 51.1422 77.8374 52.1542C77.4397 53.2212 76.8241 54.1912 76.0248 54.9984L76.0235 54.9971Z" fill="white"/>
<defs>
<linearGradient id="paint0_linear_102_41" x1="0" y1="0" x2="128" y2="128" gradientUnits="userSpaceOnUse">
<stop stop-color="#D53369"/>
<stop offset="1" stop-color="#DAAE51"/>
</linearGradient>
</defs>
</svg>
